<?xml version="1.0" encoding="UTF-8" standalone="no"?>
<svg
   xmlns:dc="http://purl.org/dc/elements/1.1/"
   xmlns:cc="http://creativecommons.org/ns#"
   xmlns:rdf="http://www.w3.org/1999/02/22-rdf-syntax-ns#"
   xmlns:svg="http://www.w3.org/2000/svg"
   xmlns="http://www.w3.org/2000/svg"
   xmlns:sodipodi="http://sodipodi.sourceforge.net/DTD/sodipodi-0.dtd"
   xmlns:inkscape="http://www.inkscape.org/namespaces/inkscape"
   version="1.1"
   id="svg40"
   width="1500"
   height="2000"
   viewBox="0 0 1500 2000"
   sodipodi:docname="supra.svg"
   inkscape:version="1.0.2-2 (e86c870879, 2021-01-15)"
   >
  <g
     id="g48">
    <path
       id="path76"
       style="fill:none;stroke:#000000;stroke-width:1px;stroke-linecap:butt;stroke-linejoin:miter;stroke-opacity:1"
       d="" />
    <path
       id="path82"
       style="fill:none;stroke:#000000;stroke-width:1px;stroke-linecap:butt;stroke-linejoin:miter;stroke-opacity:1"
       d="" />
    <path
       style="fill:none;stroke:#000000;stroke-width:1px;stroke-linecap:butt;stroke-linejoin:miter;stroke-opacity:1"
       d="m 545.88236,1545.8823 c 4.7059,-11.7647 -65.8824,-316.4705 167.0588,-469.4117 0,0 98.82355,-39.4118 158.23531,-82.35295 0,0 9.41177,-12.94118 15.88235,-17.64706 0,0 -5.29411,-22.35294 11.76471,-68.82353 0,0 -73.52941,-28.82353 -30,-192.35294 0,0 -16.47059,-38.2353 5.29412,-85.29412 0,0 55.88237,-5.29412 79.99997,62.35294 0,0 41.1765,-16.47059 96.47058,2.94118 0,0 38.2353,-65.29412 75.2941,-58.2353 1.1765,2.94118 21.1765,70.00001 -2.9411,101.17648 0,0 33.5294,115.88235 -28.2353,174.70588 0,0 -5.2941,31.7647 -10,47.64706"
       id="path98" />
    <path
       style="fill:none;stroke:#000000;stroke-width:1px;stroke-linecap:butt;stroke-linejoin:miter;stroke-opacity:1"
       d="m 1084.7059,960.58824 c 0,0 51.1764,248.82356 -95.88238,354.70586 0,0 -35.2941,54.1177 -22.9412,206.4706 0,0 -2.3529,33.5294 15.2942,32.3529 0,0 44.70578,7.0589 51.17638,32.353 0,0 4.1177,35.8823 -21.1764,41.1764 0,0 -55.88238,10 -78.23528,-2.9411 0,0 -48.23534,-51.7647 -38.82357,-244.7059 0,0 -80.58824,30 -62.35294,52.9412 0,0 59.41176,64.7058 -54.70585,152.3529 0,0 77.05879,-20.5882 83.52938,14.7059 0,0 21.7647,60 -91.17648,41.1765 0,0 -20,2.3529 -178.2353,-14.7059 0,0 -16.4706,-8.2353 -18.8235,-22.353"
       id="path100" />
    <path
       style="fill:none;stroke:#000000;stroke-width:1px;stroke-linecap:butt;stroke-linejoin:miter;stroke-opacity:1"
       d="m 572.35296,1604.1176 c 0,0 -222.9412,62.353 -267.0588,-60.5882 0,0 -51.1765,-118.8235 44.1176,-163.5294 0,0 60.5882,-20 64.7059,-28.2353 0,0 21.1765,-34.1177 -37.0588,-36.4706 0,0 -43.5294,12.9412 -62.9412,-2.3529 0,0 -18.2353,-18.8236 27.647,-25.8824 0,0 26.4706,-13.5294 107.6471,5.8824 0,0 65.2941,44.7058 -23.5294,107.0588 0,0 -54.1177,14.7059 -57.0588,35.8823 0,0 -22.9412,76.4706 34.7059,117.0589 0,0 17.0588,21.1764 142.3529,-7.0589"
       id="path102" />
    <path
       style="fill:#000000;stroke:none;stroke-width:2.35294"
       d="m 781.92156,1641.5483 c -9.7058,-1.0948 -35.647,-3.1634 -57.647,-4.5971 -66.7376,-4.349 -131.154,-11.7217 -137.2404,-15.7077 -3.0116,-1.9722 -7.5532,-7.1071 -10.0924,-11.4107 l -4.6167,-7.8247 -12.2605,3.2367 c -45.9179,12.1223 -126.339,15.6858 -162.8488,7.2158 -52.7441,-12.2361 -80.419,-36.9622 -95.1874,-85.0449 -16.4704,-53.6242 -8.4842,-99.74 22.1159,-127.7068 12.4394,-11.3689 17.0905,-13.723 63.3899,-32.0844 24.4381,-9.6916 29.0527,-13.2877 31.1077,-24.2413 4.2405,-22.604 -17.0125,-32.2088 -58.6271,-26.4953 -24.899,3.4185 -39.5454,0.6386 -45.6381,-8.6621 -5.3118,-8.1087 3.1247,-13.8394 29.2667,-19.8803 24.9214,-5.7588 45.2693,-5.3812 82.9238,1.5387 19.8082,3.6403 21.6128,4.472 30.4109,14.0169 11.8938,12.9032 15.99,26.5696 12.2352,40.8208 -6.2433,23.6953 -30.9354,48.1433 -59.7292,59.1386 -24.9548,9.5294 -38.1661,18.951 -42.0805,30.0096 -1.9706,5.5672 -3.0858,19.2927 -3.0124,37.075 0.097,23.5111 0.9969,30.4607 5.3774,41.5354 6.639,16.7848 18.1222,31.9095 31.0048,40.8372 9.243,6.4054 11.9415,7.015 34.7952,7.861 13.6262,0.5044 34.3948,-0.3733 46.1523,-1.9505 25.9879,-3.4862 62.2092,-10.6836 64.3031,-12.7776 0.8409,-0.8409 0.2542,-17.1148 -1.3038,-36.1642 -9.8074,-119.9158 3.439,-208.4751 43.1907,-288.753 18.5252,-37.4114 38.7691,-65.9413 66.9776,-94.3923 29.5787,-29.8329 52.3216,-45.9039 85.8567,-60.6694 64.35538,-28.3357 117.11649,-57.9313 135.88232,-76.22127 10.47071,-10.2052 11.17647,-11.65675 11.17647,-22.98644 0,-6.65135 2.68897,-22.75657 5.97548,-35.78939 l 5.97549,-23.69605 -11.82457,-11.06049 c -32.06437,-29.99247 -39.21572,-88.35474 -20.60108,-168.12584 2.50412,-10.73103 2.46094,-15.35224 -0.25268,-27.05882 -3.82631,-16.50658 -2.51224,-37.74726 3.51894,-56.8804 l 4.11842,-13.06514 10.96988,1.29922 c 24.40123,2.88996 48.98879,21.97811 60.53169,46.99267 5.7127,12.38012 6.8378,13.50262 12.1767,12.14863 3.2353,-0.82051 18.0588,-1.98491 32.9411,-2.58756 21.39498,-0.86637 30.48628,-0.19117 43.43308,3.22574 l 16.3743,4.32147 13.6913,-18.16978 c 19.2022,-25.48325 38.2271,-39.63779 53.2765,-39.63779 6.6071,0 7.1852,0.77545 10.0859,13.52941 1.6923,7.44117 3.0909,25.17647 3.108,39.41176 0.026,21.72589 -0.7722,27.48907 -4.9705,35.88738 -4.709,9.42007 -4.8118,10.86452 -1.7596,24.70588 1.783,8.08548 3.9021,27.40674 4.7092,42.93616 2.3602,45.41178 -5.9337,77.77701 -27.1231,105.84223 -7.403,9.80508 -9.8651,16.07638 -14.1273,35.98355 -4.3116,20.13765 -4.7638,26.26247 -2.745,37.18283 5.1535,27.87794 7.5319,84.35684 4.9804,118.26674 -7.0288,93.4113 -30.6237,151.6225 -81.959,202.2012 -22.54658,22.2142 -24.99328,25.5097 -30.06188,40.4913 -13.2761,39.2408 -18.7052,97.175 -15.3882,164.2073 2.5025,50.5719 3.3128,52.6844 21.8873,57.0605 26.22898,6.1794 46.60348,21.4146 46.57548,34.8272 -0.021,10.5551 -4.4004,22.8422 -10.0213,28.1228 -10.0837,9.4731 -63.64898,13.0773 -82.42628,5.5461 -12.7918,-5.1305 -30.42036,-52.9708 -38.26714,-103.8494 -2.34682,-15.2167 -4.29762,-47.5251 -5.07913,-84.1177 -0.69786,-32.6764 -1.72515,-59.4117 -2.28289,-59.4117 -0.55772,0 -9.68626,4.1478 -20.2856,9.2173 -24.95501,11.9356 -38.47878,21.9017 -43.22445,31.8535 -3.73847,7.8396 -3.67047,8.2282 3.38621,19.3471 23.00266,36.2443 13.0032,77.9407 -28.71536,119.739 -7.836,7.8511 -17.8215,17.1593 -22.1899,20.685 -4.3684,3.5256 -7.387,6.9658 -6.7081,7.6447 0.6789,0.6789 5.8413,-0.026 11.472,-1.5661 14.694,-4.0197 48.58327,-4.0889 57.99548,-0.1186 9.57925,4.0409 14.59492,13.2699 14.59492,26.8552 0,12.0112 -6.70515,20.9395 -19.85047,26.432 -10.61198,4.4339 -35.77908,5.9384 -57.79663,3.4551 z"
       id="path104" />
  </g>
</svg>
